PathFileType	4	(X/Y/Z)	./resultDataOpenSim/trcMotMarkerGrf/sub06/qtm-14-04.trc
DataRate	CameraRate	NumFrames	NumMarkers	Units	OrigDataRate	OrigDataStartFrame	OrigNumFrames
250.000000	250.000000	5	24	m	250.000000	204	542
Frame#	Time	L.Toe.Tip			R.Toe.Tip			L.Ankle.Lat			R.Ankle.Lat			L.Ankle.Med			R.Ankle.Med			L.Heel			R.Heel			L.Knee.Lat			R.Knee.Lat			L.Knee.Med			R.Knee.Med			L.Thigh.Upper			R.Thigh.Upper			L.ASIS			R.ASIS			V.Sacral			L.Acromium			R.Acromium			C7			L.Elbow			R.Elbow			L.Wrist.Lat			R.Wrist.Lat
		X1	Y1	Z1	X2	Y2	Z2	X3	Y3	Z3	X4	Y4	Z4	X5	Y5	Z5	X6	Y6	Z6	X7	Y7	Z7	X8	Y8	Z8	X9	Y9	Z9	X10	Y10	Z10	X11	Y11	Z11	X12	Y12	Z12	X13	Y13	Z13	X14	Y14	Z14	X15	Y15	Z15	X16	Y16	Z16	X17	Y17	Z17	X18	Y18	Z18	X19	Y19	Z19	X20	Y20	Z20	X21	Y21	Z21	X22	Y22	Z22	X23	Y23	Z23	X24	Y24	Z24

204	0.812	0.035717166	-0.040162657	0.043643537	-0.44920847	0.10711821	0.13940506	-0.079078238	-0.0075881267	-0.013747596	-0.45860557	0.24629303	0.16670693	-0.10637171	0.0085768285	0.067852448	-0.41789519	0.23384855	0.087717984	-0.16181762	-0.034784277	0.0077949486	-0.48319461	0.29070015	0.10335427	-0.037186198	0.36764734	-0.031696954	-0.1105744	0.35790759	0.23119337	-0.087716493	0.37023635	0.076936728	-0.10725508	0.34293045	0.097072577	-0.11700239	0.75168017	-0.13173766	-0.19382653	0.73552724	0.20013755	-0.054957309	0.79389488	-0.074947146	-0.087000338	0.77565434	0.16451941	-0.26690644	0.88003298	0.020347157	-0.119405	1.2583168	-0.14059552	-0.15812756	1.258386	0.22320729	-0.21930991	1.2953998	0.031878469	-0.19302654	0.96112838	-0.20009903	-0.22431787	0.93942388	0.28488771	-0.11818615	0.73288945	-0.22999544	-0.022892207	0.79628223	0.30728209
205	0.816	0.035821777	-0.040140231	0.043802896	-0.43094927	0.10815253	0.14083692	-0.078851894	-0.0075466398	-0.013566541	-0.44208473	0.24692114	0.16848097	-0.10610293	0.0087512243	0.068124778	-0.40179984	0.23503028	0.089281427	-0.1617673	-0.034461861	0.0079617094	-0.46819513	0.29102166	0.10540986	-0.033936414	0.36671749	-0.031005745	-0.095441236	0.3612643	0.23075689	-0.083808698	0.36982745	0.077366886	-0.091768548	0.34543652	0.096348846	-0.11161429	0.75107717	-0.13226825	-0.18700635	0.73638998	0.20078856	-0.049561851	0.79520597	-0.076110133	-0.081661417	0.77863878	0.1642593	-0.26097139	0.88051313	0.020001735	-0.11231679	1.2603266	-0.13959625	-0.15043395	1.2601528	0.22364016	-0.21241945	1.2966712	0.032758516	-0.18262082	0.96247612	-0.20025156	-0.21975314	0.94294615	0.28292879	-0.1053795	0.73488703	-0.22893509	-0.022013694	0.79404965	0.30805257
206	0.82	0.035915782	-0.040119723	0.043985312	-0.41253458	0.10900181	0.14242035	-0.078636452	-0.0074683986	-0.013389818	-0.42544505	0.24740181	0.17034946	-0.10588691	0.0089303605	0.068356425	-0.38575455	0.23594272	0.090843346	-0.16172292	-0.034135105	0.0081243966	-0.453253	0.29100429	0.10747777	-0.03108482	0.36575787	-0.030437745	-0.080355938	0.36494581	0.23023825	-0.080304682	0.3695806	0.077702711	-0.0774567	0.34818692	0.095588474	-0.10604742	0.75031417	-0.13270401	-0.18018536	0.73728357	0.2014518	-0.044139061	0.79645006	-0.077104588	-0.07632731	0.78159871	0.16411535	-0.25505337	0.88099657	0.01969587	-0.10518411	1.2623947	-0.13856758	-0.14290155	1.2618816	0.22406153	-0.20561486	1.2979277	0.033537799	-0.17240804	0.96384491	-0.20038334	-0.21501188	0.94640069	0.28105276	-0.092509605	0.73698574	-0.22787515	-0.021252484	0.79202962	0.30881467
207	0.824	0.035990052	-0.040104535	0.0441587	-0.39402077	0.10961389	0.14413556	-0.07846462	-0.0073353689	-0.013270037	-0.40879085	0.24769904	0.17225501	-0.10565599	0.0091193863	0.068537594	-0.36973855	0.23663706	0.09237112	-0.16168323	-0.033824049	0.0083306839	-0.43838279	0.29064771	0.1094988	-0.028653125	0.36484078	-0.030059174	-0.065327224	0.36891812	0.22965422	-0.077774219	0.36938282	0.078038443	-0.06447065	0.35107832	0.094726819	-0.10035524	0.74943495	-0.13306015	-0.17336171	0.73820696	0.20212548	-0.0386937	0.79763009	-0.077947153	-0.070988227	0.78450638	0.1640766	-0.2491506	0.88148204	0.019431542	-0.098013771	1.2645004	-0.13752617	-0.13548906	1.263564	0.2244725	-0.19887483	1.2991827	0.034224576	-0.16240989	0.96521974	-0.20049593	-0.21017504	0.9497609	0.27932488	-0.079455159	0.73920936	-0.226811	-0.020573305	0.7901967	0.30958479
208	0.828	0.036036738	-0.040106224	0.044309499	-0.37544316	0.10995853	0.14598012	-0.07836103	-0.0071719884	-0.013239556	-0.39234091	0.24768941	0.17409447	-0.10537705	0.0093474749	0.068651416	-0.35369211	0.23713856	0.093870851	-0.16164332	-0.033530112	0.0085878772	-0.42360555	0.28993834	0.111409	-0.026572529	0.36403765	-0.029860487	-0.050378264	0.37312725	0.22901651	-0.076137356	0.36919184	0.078489779	-0.05167615	0.35416169	0.093610713	-0.094691508	0.74850354	-0.13335528	-0.16653353	0.73915908	0.20280778	-0.033231701	0.79874717	-0.07865095	-0.065639962	0.78734511	0.16412762	-0.24326128	0.88196827	0.019210738	-0.090822541	1.2666138	-0.13649451	-0.1281822	1.2651765	0.22486433	-0.19217373	1.3004569	0.034838095	-0.15253989	0.96656914	-0.2007047	-0.20532594	0.95301039	0.27778686	-0.066280657	0.74151639	-0.22582213	-0.019939314	0.78851498	0.31038622
